<svg width="58" height="19" viewBox="0 0 58 19" fill="none" xmlns="http://www.w3.org/2000/svg">
<g clip-path="url(#clip0)">
<path d="M25.1333 18.7259H20.4349L23.3736 0.333389H28.0718L25.1333 18.7259Z" fill="#FEF6F6"/>
<path d="M42.1654 0.783042C41.2387 0.410896 39.7688 0 37.9513 0C33.3115 0 30.0441 2.50438 30.0241 6.08489C29.9856 8.72658 32.3634 10.1938 34.1419 11.0747C35.9596 11.9747 36.5775 12.5622 36.5775 13.3645C36.559 14.5967 35.1087 15.1646 33.756 15.1646C31.8801 15.1646 30.8751 14.8718 29.3476 14.1863L28.7289 13.8924L28.0715 18.0211C29.1734 18.5293 31.2037 18.9802 33.3115 19C38.2414 19 41.4509 16.5344 41.4889 12.7188C41.5077 10.625 40.2521 9.02071 37.5451 7.70974C35.9018 6.86819 34.8954 6.30074 34.8954 5.43968C34.9147 4.6569 35.7466 3.85513 37.6016 3.85513C39.1291 3.81586 40.2513 4.18749 41.1015 4.55937L41.5265 4.75468L42.1654 0.783042Z" fill="#FEF6F6"/>
<path d="M48.41 12.2101C48.7969 11.1534 50.2858 7.064 50.2858 7.064C50.2663 7.10327 50.672 5.98787 50.904 5.30314L51.2323 6.88794C51.2323 6.88794 52.1221 11.2905 52.3153 12.2101C51.581 12.2101 49.338 12.2101 48.41 12.2101ZM54.2096 0.333389H50.5754C49.4547 0.333389 48.6032 0.665746 48.1197 1.85942L41.1408 18.7256H46.0707C46.0707 18.7256 46.8823 16.4556 47.0568 15.9666C47.5976 15.9666 52.3934 15.9666 53.0891 15.9666C53.224 16.6124 53.6498 18.7256 53.6498 18.7256H58L54.2096 0.333389Z" fill="#FEF6F6"/>
<path d="M16.5106 0.333389L11.9093 12.8753L11.4065 10.3317C10.5558 7.39663 7.88786 4.20777 4.9106 2.62218L9.12521 18.7064H14.0936L21.4787 0.333389H16.5106Z" fill="#FEF6F6"/>
<path d="M7.63661 0.333389H0.0773344L0 0.705015C5.89671 2.23131 9.80199 5.91038 11.4065 10.3324L9.76319 1.87945C9.49265 0.704755 8.66123 0.372138 7.63661 0.333389Z" fill="url(#paint0_linear)"/>
</g>
<defs>
<linearGradient id="paint0_linear" x1="0" y1="10.3324" x2="10.5305" y2="2.91453" gradientUnits="userSpaceOnUse">
<stop stop-color="#E66B6B"/>
<stop offset="1" stop-color="#A71B1B"/>
</linearGradient>
<clipPath id="clip0">
<rect width="58" height="19" fill="white"/>
</clipPath>
</defs>
</svg>
